<?xml version="1.0" standalone="no"?>
<!DOCTYPE svg PUBLIC "-//W3C//DTD SVG 20010904//EN"
 "http://www.w3.org/TR/2001/REC-SVG-20010904/DTD/svg10.dtd">
<svg version="1.0" xmlns="http://www.w3.org/2000/svg"
 width="1356.000000pt" height="1233.000000pt" viewBox="0 0 1356.000000 1233.000000"
 preserveAspectRatio="xMidYMid meet">

<g transform="translate(0.000000,1233.000000) scale(0.100000,-0.100000)"
fill="#000000" stroke="none">
<path d="M6726 12136 c-26 -31 -60 -63 -74 -70 -15 -8 -72 -17 -127 -21 -347
-23 -759 -108 -1104 -227 -610 -210 -1110 -594 -1324 -1016 -45 -90 -52 -112
-52 -162 0 -92 12 -100 154 -99 64 0 136 -4 161 -10 299 -68 592 -314 703
-593 88 -219 74 -407 -44 -604 -33 -54 -154 -194 -168 -194 -4 0 -20 41 -35
91 -16 50 -47 129 -71 177 -48 99 -157 242 -185 242 -39 0 -43 -23 -36 -178 6
-118 4 -163 -9 -227 -30 -143 -99 -276 -203 -387 l-45 -48 -361 -119 c-474
-156 -721 -255 -1054 -422 l-273 -137 -20 21 c-22 24 -24 61 -8 157 19 116 -6
140 -97 95 -38 -19 -69 -45 -104 -88 -56 -68 -145 -239 -206 -391 -43 -109
-18 -82 -289 -317 -446 -388 -785 -815 -1011 -1271 -27 -54 -51 -98 -55 -98
-16 0 -34 233 -34 454 l0 238 -22 -73 c-13 -41 -34 -123 -47 -184 -49 -217
-58 -307 -62 -589 l-4 -268 -35 -112 c-124 -400 -169 -706 -169 -1156 0 -305
12 -451 59 -706 145 -786 533 -1492 1165 -2124 511 -511 1098 -870 1800 -1098
428 -140 808 -210 1264 -233 141 -7 1059 -9 2766 -7 2370 3 2562 5 2647 21
192 36 330 105 409 206 169 215 97 521 -160 675 -124 74 -289 104 -472 86 -94
-10 -154 -7 -154 8 0 3 42 46 93 96 94 92 189 222 226 310 51 119 63 170 68
298 5 104 8 128 22 133 9 3 124 13 256 21 132 9 260 18 285 21 52 6 50 1 -32
-54 -99 -67 -140 -137 -179 -313 -37 -169 -20 -334 51 -487 48 -104 86 -158
173 -250 89 -93 190 -170 314 -236 79 -43 97 -57 94 -72 -2 -11 -4 -54 -5 -95
-1 -99 26 -152 99 -189 42 -22 62 -26 140 -26 49 0 98 2 109 5 15 4 21 -3 30
-35 19 -63 43 -91 116 -140 76 -51 103 -55 189 -28 79 25 153 98 175 172 19
66 20 108 2 184 -10 43 -11 59 -2 62 6 2 61 16 121 30 393 96 650 309 777 647
28 72 32 96 32 183 1 112 -13 150 -81 226 l-37 41 23 121 c44 235 53 317 46
426 -15 244 -107 457 -280 649 l-48 53 17 85 c32 160 35 192 25 256 -13 78
-46 147 -107 223 -26 33 -60 81 -75 106 -35 61 -76 95 -165 136 -112 52 -192
66 -357 60 -153 -5 -225 -22 -386 -93 -42 -19 -90 -34 -106 -34 -35 0 -107 40
-111 62 -8 39 127 73 328 82 243 12 423 57 621 157 57 28 130 58 163 66 193
45 347 197 390 384 9 35 29 89 45 119 39 73 53 130 52 215 0 94 -18 153 -94
325 -86 194 -94 220 -117 395 -59 441 -197 743 -459 1006 -264 263 -594 417
-996 464 -33 4 -66 12 -73 18 -7 5 -27 37 -45 70 -40 75 -144 183 -217 224
-87 49 -174 76 -220 70 -55 -7 -174 -65 -266 -128 -82 -57 -221 -198 -286
-290 -40 -57 -74 -79 -97 -64 -24 14 -7 52 83 188 51 78 114 180 139 227 114
213 210 478 263 730 12 57 25 91 39 105 117 109 243 238 267 273 61 88 118
245 118 324 0 66 -26 57 -84 -26 -21 -31 -41 -55 -43 -53 -2 2 10 41 26 85 58
158 95 311 111 470 15 142 -10 166 -96 92 -82 -72 -298 -209 -310 -198 -2 3
-14 52 -25 109 -24 128 -66 288 -120 456 -58 183 -71 253 -71 378 0 152 23
223 98 304 59 64 60 63 -17 76 -51 9 -140 -11 -179 -40 -18 -13 -48 -47 -68
-76 -33 -49 -36 -51 -49 -33 -28 39 -38 101 -38 249 0 175 12 224 101 417 62
134 68 178 29 204 -65 42 -253 -28 -370 -138 -36 -33 -82 -87 -102 -119 -20
-33 -39 -59 -44 -59 -23 0 -112 123 -162 225 -31 63 -63 115 -70 115 -8 0 -26
-13 -40 -30 -15 -16 -31 -30 -36 -30 -5 0 -29 42 -54 93 -48 100 -125 201
-176 230 -31 18 -31 18 -30 -5 0 -13 4 -47 8 -75 4 -29 5 -53 3 -53 -2 0 -59
33 -126 74 -359 217 -770 375 -1191 456 -135 26 -162 34 -248 73 l-68 30 -37
-20 c-33 -18 -45 -20 -117 -12 -174 19 -254 38 -335 79 -47 24 -100 42 -132
46 l-54 6 -48 -56z m214 -220 c25 -8 75 -26 112 -40 40 -15 108 -30 165 -36
311 -33 384 -44 436 -61 114 -38 177 -92 263 -225 30 -47 58 -83 63 -80 5 3
-7 54 -25 113 -19 58 -32 108 -29 111 2 3 33 -9 68 -26 43 -21 86 -54 128 -99
35 -36 83 -87 107 -111 26 -28 46 -42 52 -36 6 6 5 36 -1 78 -5 38 -8 71 -6
73 5 4 231 -126 297 -170 82 -56 188 -146 243 -208 30 -34 59 -59 64 -56 6 4
18 33 27 66 9 33 22 63 27 67 25 15 42 -26 50 -122 8 -98 24 -135 49 -119 7 4
28 41 47 81 18 41 36 74 40 74 3 0 25 -18 49 -40 39 -36 49 -40 94 -40 60 0
63 -3 126 -161 25 -63 62 -143 82 -178 l35 -64 -27 -103 c-50 -194 -57 -276
-66 -784 -7 -430 -10 -482 -29 -552 -11 -42 -28 -92 -37 -110 -32 -63 -75
-118 -86 -112 -7 4 -8 2 -4 -4 5 -8 -3 -12 -23 -12 -18 0 -31 5 -31 13 0 8 -4
7 -10 -3 -6 -10 -10 -11 -10 -2 0 8 -19 12 -60 12 -33 0 -60 3 -60 6 0 3 32
50 71 103 40 53 87 127 105 166 34 70 45 135 22 135 -7 0 -53 -43 -103 -95
-50 -52 -97 -95 -103 -95 -43 0 -18 146 47 288 60 128 76 190 59 227 -6 14
-15 25 -20 25 -5 0 -37 -26 -70 -57 l-60 -58 -19 24 c-26 32 -24 62 16 201 19
67 35 129 35 139 0 24 -29 63 -42 55 -6 -4 -30 -50 -55 -103 -84 -183 -104
-214 -129 -204 -8 3 -33 35 -57 72 -23 36 -74 114 -114 172 -39 59 -79 128
-87 155 -8 27 -20 107 -26 178 -11 122 -28 186 -50 186 -5 0 -12 -10 -15 -22
-2 -13 -13 -59 -23 -103 -12 -55 -22 -81 -33 -83 -25 -5 -40 46 -48 165 -7
113 -13 133 -36 133 -15 0 -28 -40 -40 -120 -4 -25 -12 -50 -17 -57 -27 -34
-76 42 -111 173 -26 96 -47 138 -75 149 -31 12 -41 -21 -35 -111 7 -94 0 -102
-41 -53 -40 47 -54 80 -65 149 -12 70 -24 90 -56 90 -40 0 -65 -30 -72 -88 -4
-33 -10 -51 -17 -48 -460 203 -688 272 -1091 331 -518 75 -998 19 -1248 -145
-37 -24 -65 -45 -63 -47 1 -2 30 10 64 27 137 66 277 99 467 108 573 30 1260
-155 1810 -487 160 -96 387 -281 500 -407 l64 -72 -62 20 c-136 43 -304 35
-632 -29 -223 -43 -426 -54 -544 -29 -41 9 -76 14 -77 13 -6 -6 143 -59 214
-78 160 -41 291 -47 497 -25 72 8 178 20 237 27 82 9 127 9 185 0 82 -12 191
-57 231 -94 56 -52 67 -118 28 -164 -23 -26 -29 -28 -105 -28 -45 0 -81 0 -81
-2 0 -1 33 -23 73 -49 184 -119 297 -265 347 -446 20 -73 20 -80 5 -179 -36
-243 -150 -541 -296 -774 -261 -418 -605 -732 -1064 -972 -67 -34 -125 -63
-128 -63 -4 0 27 51 67 113 194 298 293 524 342 785 20 108 15 334 -11 432
-25 97 -107 258 -173 341 -170 215 -459 393 -830 513 -120 39 -304 88 -309 82
-2 -2 56 -29 129 -60 148 -62 291 -138 288 -150 -1 -5 4 -13 12 -17 8 -6 1 -9
-22 -9 -26 0 -31 -3 -20 -10 12 -8 11 -10 -7 -10 -13 0 -23 -4 -23 -10 0 -5
-15 -10 -32 -10 -25 0 -29 -3 -18 -10 12 -8 10 -10 -10 -10 -20 0 -22 -2 -10
-10 12 -7 8 -10 -15 -10 -19 0 -36 -8 -45 -20 -9 -12 -26 -20 -45 -20 -23 0
-27 -3 -15 -10 12 -8 11 -10 -7 -10 -13 0 -23 -4 -23 -10 0 -5 -9 -10 -20 -10
-11 0 -20 -4 -20 -10 0 -5 -9 -10 -20 -10 -11 0 -20 -4 -20 -10 0 -5 -9 -10
-20 -10 -11 0 -20 -4 -20 -10 0 -5 -10 -10 -22 -10 -19 0 -20 -2 -8 -10 11 -7
6 -10 -20 -10 -26 0 -31 -3 -20 -10 12 -8 11 -10 -7 -10 -13 0 -23 -4 -23 -10
0 -5 -8 -10 -17 -10 -10 -1 -1 -10 22 -21 378 -195 584 -329 744 -483 181
-175 252 -323 266 -552 8 -126 4 -141 -100 -359 -62 -129 -90 -165 -131 -165
-22 0 -26 -3 -14 -10 12 -8 11 -10 -7 -10 -13 0 -23 -4 -23 -10 0 -5 -9 -10
-20 -10 -11 0 -20 -4 -20 -10 0 -5 -9 -10 -20 -10 -11 0 -20 -4 -20 -10 0 -5
-9 -10 -20 -10 -11 0 -20 -4 -20 -10 0 -5 -10 -10 -22 -10 -19 0 -20 -2 -8
-10 11 -7 6 -10 -20 -10 -26 0 -31 -3 -20 -10 12 -8 11 -10 -7 -10 -13 0 -23
-4 -23 -10 0 -5 -13 -10 -29 -10 l-28 0 18 66 c30 109 41 243 29 363 -11 104
-30 162 -30 89 0 -36 -42 -216 -57 -242 -4 -8 -8 54 -9 137 0 138 -3 161 -28
242 -55 177 -137 306 -296 465 -125 126 -227 204 -540 415 -129 87 -268 185
-309 218 l-73 60 7 46 c22 137 9 463 -26 661 -73 409 -367 728 -779 845 -242
69 -256 100 -122 265 103 127 132 149 572 418 400 244 887 390 1150 343 71
-13 114 -8 108 12 -6 17 -83 53 -148 67 -86 20 -286 16 -424 -9 -65 -12 -120
-20 -122 -18 -8 8 91 71 170 108 214 100 516 145 811 120 150 -13 126 -5 369
-114 44 -20 84 -34 88 -31 5 3 -14 48 -42 99 -27 52 -50 98 -50 104 0 15 26
14 80 -3z m3012 -861 c9 -21 6 -42 -20 -128 -66 -211 -88 -371 -79 -580 4
-116 2 -152 -14 -220 -32 -133 -126 -330 -258 -537 l-41 -65 -1 120 c-1 66 -2
145 -3 175 -5 181 21 470 60 679 32 172 65 275 122 385 81 153 202 242 234
171z m129 -1115 l6 -245 -30 -85 c-36 -103 -97 -229 -143 -291 -42 -57 -42
-64 -3 -44 54 28 110 88 174 183 l62 92 27 -98 c49 -186 32 -233 -120 -328
-130 -81 -437 -205 -811 -329 -150 -49 -268 -143 -368 -293 -26 -40 -49 -72
-50 -72 -5 0 83 278 95 301 25 46 101 138 143 173 54 44 177 116 198 116 31 0
164 97 230 167 117 125 211 284 332 568 147 342 200 440 235 433 15 -3 18 -27
23 -248z m669 -764 c0 -3 -4 -8 -10 -11 -5 -3 -10 -1 -10 4 0 6 5 11 10 11 6
0 10 -2 10 -4z m-6030 -124 c52 -124 65 -186 64 -307 0 -88 -6 -130 -28 -210
-79 -284 -216 -530 -385 -692 -36 -35 -62 -63 -59 -63 9 0 174 100 253 153
196 132 391 324 495 486 l34 54 13 -30 c52 -128 93 -371 93 -551 0 -279 -52
-446 -244 -780 -48 -84 -97 -178 -108 -209 -51 -146 -28 -273 74 -404 15 -20
28 -39 28 -42 0 -21 -367 -131 -655 -197 -975 -223 -1101 -258 -1257 -351 -38
-22 -71 -39 -74 -37 -2 3 -14 40 -26 84 -29 106 -32 402 -5 569 66 408 220
758 492 1120 109 145 159 201 333 379 126 128 474 451 563 524 16 13 58 61 94
106 87 112 155 252 216 444 23 73 23 73 41 50 9 -13 31 -56 48 -96z m5993 111
c-7 -2 -19 -2 -25 0 -7 3 -2 5 12 5 14 0 19 -2 13 -5z m-1077 -411 c-18 -16
-18 -16 -6 6 6 13 14 21 18 18 3 -4 -2 -14 -12 -24z m-4353 -73 c49 -104 148
-249 327 -481 201 -259 232 -305 295 -432 88 -179 112 -304 76 -400 -54 -144
-130 -254 -286 -410 -179 -180 -373 -324 -577 -427 l-76 -38 -15 22 c-43 66
-52 184 -24 294 9 34 39 124 68 200 128 347 136 372 176 548 25 116 25 416 -1
540 -21 103 -66 241 -107 333 l-28 64 43 86 c24 48 51 108 61 135 10 26 20 47
24 47 3 0 23 -37 44 -81z m4257 -63 c0 -2 -8 -10 -17 -17 -16 -13 -17 -12 -4
4 13 16 21 21 21 13z m-30 -39 c0 -2 -10 -12 -22 -23 l-23 -19 19 23 c18 21
26 27 26 19z m-70 -70 c0 -2 -12 -14 -27 -28 l-28 -24 24 28 c23 25 31 32 31
24z m-5816 -209 c-5 -7 -32 -45 -61 -85 -137 -186 -267 -401 -386 -638 -275
-550 -392 -1084 -348 -1585 4 -47 6 -89 4 -95 -4 -12 -133 -98 -138 -93 -11
11 -54 226 -81 408 -21 143 -30 526 -15 671 18 170 62 353 116 484 14 34 15
38 1 25 -22 -22 -119 -215 -147 -292 l-24 -68 -50 -2 -50 -1 45 -6 c25 -3 44
-9 43 -13 -2 -5 -3 -16 -3 -26 0 -10 -7 -27 -16 -38 -8 -10 -13 -13 -9 -6 5 9
-13 12 -72 13 -61 1 -70 3 -43 9 28 6 20 8 -40 9 -52 1 -70 4 -60 11 12 8 11
10 -7 10 l-21 0 19 88 c69 317 207 567 442 804 88 88 108 102 224 161 141 71
316 144 523 218 144 51 166 56 154 37z m-1204 -185 c7 -16 15 -60 18 -99 4
-63 0 -83 -42 -212 -104 -319 -131 -485 -167 -1043 -21 -329 24 -702 116 -959
35 -96 112 -248 143 -278 53 -55 -9 -79 -112 -44 l-57 19 -11 -21 c-6 -12 -34
-46 -61 -76 -87 -96 -153 -190 -267 -384 l-17 -28 -52 63 c-128 158 -280 557
-365 959 -51 238 -61 339 -61 607 0 164 -3 249 -10 245 -11 -6 -5 1 75 98 78
93 302 331 307 326 2 -2 -5 -69 -16 -148 -35 -243 -42 -336 -42 -543 0 -342
57 -606 173 -803 45 -78 199 -230 267 -264 30 -15 56 -26 58 -25 2 2 -18 26
-43 53 -125 134 -199 306 -241 557 -26 159 -23 578 6 802 75 574 186 969 333
1183 34 49 50 53 68 15z m7706 -277 c-66 -216 -204 -512 -336 -724 -231 -368
-553 -697 -940 -959 -153 -103 -399 -234 -495 -262 -126 -38 -175 -43 -535
-52 -395 -9 -390 -9 -383 -25 4 -11 95 -40 281 -90 63 -17 76 -28 45 -38 -51
-14 -394 -77 -498 -91 -207 -28 -393 -62 -595 -109 l-195 -45 -360 24 c-573
39 -877 49 -1104 36 -795 -45 -1431 -259 -2196 -740 -340 -213 -540 -409 -650
-634 -129 -266 -146 -511 -59 -847 4 -17 -5 -8 -28 25 -127 189 -227 451 -258
682 -16 119 -8 305 18 398 54 198 136 323 370 568 15 16 65 63 112 106 488
442 1200 710 2135 805 571 58 1346 54 2405 -14 156 -10 355 -11 290 -2 l-35 5
35 7 c32 7 31 8 -20 10 l-55 3 45 7 c30 5 37 8 20 10 -21 2 -20 4 10 10 30 6
27 8 -30 10 -64 3 -65 3 -20 10 44 7 44 7 10 10 l-35 3 35 7 c33 7 31 8 -20
10 -51 2 -53 3 -20 10 l35 7 -30 2 c-16 2 -39 4 -50 6 -230 44 -955 142 -1220
164 -611 53 -1201 32 -1689 -59 -163 -31 -176 -31 -81 -5 127 35 535 129 691
159 72 14 327 59 566 101 463 80 512 84 713 65 258 -25 490 -84 635 -160 l55
-29 -35 29 c-48 42 -179 105 -280 134 -77 22 -81 25 -44 25 42 1 261 -27 432
-54 51 -8 247 -49 435 -89 528 -115 734 -144 950 -133 101 5 293 34 285 43 -2
1 -37 0 -78 -4 -41 -4 -129 -4 -196 -1 -200 11 -331 43 -753 180 -150 49 -324
102 -386 119 -136 36 -386 80 -461 80 -30 0 -54 4 -54 8 0 5 48 22 108 37 456
120 965 374 1333 666 99 78 128 88 339 113 183 22 249 25 629 36 194 6 391 17
453 26 272 38 462 126 613 285 65 68 136 165 151 204 4 9 9 14 11 11 3 -2 -7
-43 -21 -90z m-1619 -262 c-3 -3 -12 -4 -19 -1 -8 3 -5 6 6 6 11 1 17 -2 13
-5z m-310 -150 c-3 -3 -12 -4 -19 -1 -8 3 -5 6 6 6 11 1 17 -2 13 -5z m-1590
-250 c-3 -3 -12 -4 -19 -1 -8 3 -5 6 6 6 11 1 17 -2 13 -5z m-5227 -448 c0 -2
-8 -10 -17 -17 -16 -13 -17 -12 -4 4 13 16 21 21 21 13z m-42 -186 c-13 -187
-3 -604 17 -740 35 -239 82 -406 155 -550 33 -66 37 -78 16 -57 -72 72 -201
349 -239 517 -52 225 -61 310 -62 570 l0 235 59 88 c32 49 59 87 61 85 2 -2
-2 -68 -7 -148z m1109 23 c-3 -10 -5 -4 -5 12 0 17 2 24 5 18 2 -7 2 -21 0
-30z m-1236 -86 c-10 -9 -11 -8 -5 6 3 10 9 15 12 12 3 -3 0 -11 -7 -18z m-21
-37 c-6 -11 -13 -20 -16 -20 -2 0 0 9 6 20 6 11 13 20 16 20 2 0 0 -9 -6 -20z
m-35 -60 c-9 -16 -18 -30 -21 -30 -2 0 2 14 11 30 9 17 18 30 21 30 2 0 -2
-13 -11 -30z m-40 -70 c-9 -16 -18 -30 -21 -30 -2 0 2 14 11 30 9 17 18 30 21
30 2 0 -2 -13 -11 -30z m-1 -465 c56 -304 154 -550 321 -800 77 -115 228 -303
251 -312 8 -3 14 -20 14 -40 0 -19 14 -75 30 -125 32 -94 36 -148 17 -211
l-12 -39 -25 34 c-227 308 -398 565 -505 763 -138 253 -307 651 -307 720 1 35
39 130 125 309 l62 130 6 -170 c4 -93 14 -210 23 -259z m-351 35 c101 -416
404 -991 851 -1615 91 -127 100 -144 103 -190 17 -294 31 -437 49 -515 l6 -25
-32 30 c-37 35 -212 239 -286 335 -374 480 -630 1101 -708 1716 -17 132 -37
411 -35 489 1 45 3 41 14 -35 7 -47 24 -132 38 -190z m1684 -7 c-3 -10 -5 -4
-5 12 0 17 2 24 5 18 2 -7 2 -21 0 -30z m9096 -145 c134 8 152 6 194 -17 24
-14 55 -42 70 -64 24 -34 28 -50 28 -108 0 -60 -3 -71 -31 -106 -46 -57 -98
-83 -166 -83 -70 0 -103 12 -146 53 -50 48 -59 72 -66 189 l-7 108 33 20 c18
11 40 17 48 13 8 -4 27 -6 43 -5z m-247 -79 c27 -28 29 -35 26 -96 -3 -85 10
-123 58 -166 54 -50 193 -108 333 -142 l58 -13 42 32 c23 17 53 48 66 69 13
20 28 34 32 31 12 -7 11 -59 -1 -112 -6 -25 -7 -57 -1 -82 l9 -39 -39 20 c-50
25 -131 45 -239 59 -253 32 -420 160 -437 334 -4 44 -1 57 23 94 16 23 31 42
34 42 4 0 19 -14 36 -31z m-8846 -322 c0 -2 -10 -12 -22 -23 l-23 -19 19 23
c18 21 26 27 26 19z m-1525 -647 c152 -358 374 -744 622 -1077 l83 -113 -78 0
c-53 0 -72 3 -62 10 11 7 6 10 -20 10 -26 0 -31 3 -20 10 10 7 -15 10 -80 10
-65 0 -90 3 -80 10 11 7 3 10 -30 10 -33 0 -41 3 -30 10 10 7 -11 10 -70 10
-59 0 -80 3 -70 10 11 7 6 10 -20 10 -25 0 -31 3 -21 9 11 7 8 10 -14 13 -22
2 -35 16 -68 73 -59 104 -179 363 -230 501 -74 197 -87 256 -87 380 0 169 29
457 62 628 l11 59 72 -219 c40 -121 98 -280 130 -354z m4935 515 c0 -2 -19
-14 -42 -26 -24 -12 -106 -61 -183 -109 -173 -108 -234 -139 -363 -184 -215
-75 -384 -111 -950 -206 -858 -144 -1116 -204 -1396 -324 -376 -161 -608 -387
-727 -706 -37 -98 -37 -77 -1 31 72 212 151 354 282 504 394 453 1017 677
2380 855 370 48 972 149 989 165 6 6 11 6 11 0z m-4163 -407 c-3 -8 -6 -5 -6
6 -1 11 2 17 5 13 3 -3 4 -12 1 -19z m150 -60 c-3 -8 -6 -5 -6 6 -1 11 2 17 5
13 3 -3 4 -12 1 -19z m-22 -18 c10 -11 16 -20 13 -20 -3 0 -13 9 -23 20 -10
11 -16 20 -13 20 3 0 13 -9 23 -20z m3035 -130 c-21 -74 -107 -181 -200 -249
-156 -116 -273 -158 -965 -351 -226 -63 -378 -116 -504 -176 -378 -180 -562
-415 -626 -804 -21 -121 -16 -367 9 -530 8 -52 14 -96 12 -98 -6 -5 -115 141
-183 245 l-60 91 -13 134 c-12 125 -8 230 15 347 4 20 0 21 -73 21 -53 0 -72
3 -62 10 13 8 13 10 -2 10 -13 0 -16 7 -12 28 8 46 35 122 82 227 207 468 579
758 1161 905 212 53 396 83 926 150 132 17 294 39 360 49 66 10 125 19 132 20
8 1 9 -8 3 -29z m-4036 -720 c64 -102 125 -200 137 -217 l21 -33 -54 0 c-38 0
-49 3 -38 10 11 7 3 10 -30 10 -33 0 -41 3 -30 10 11 7 0 10 -36 10 l-52 0
-21 113 c-11 61 -25 146 -31 187 -6 41 -13 91 -16 110 l-5 35 20 -25 c11 -14
72 -108 135 -210z m3626 -76 c43 -116 46 -246 10 -376 -10 -34 -15 -37 -78
-56 -37 -11 -157 -41 -267 -67 -307 -73 -496 -145 -649 -248 -54 -37 -77 -47
-110 -47 -30 0 -37 3 -26 10 10 7 -8 10 -60 10 -52 0 -70 3 -60 10 11 7 3 10
-30 11 -38 1 -41 2 -20 9 24 8 23 8 -8 9 l-33 1 62 93 c85 125 265 302 399
393 207 140 455 244 676 283 172 30 169 31 194 -35z m8128 -1004 c108 -207
127 -408 67 -704 -35 -173 -59 -245 -99 -305 -62 -92 -138 -147 -261 -187
-109 -36 -353 -45 -520 -20 -494 76 -758 215 -846 444 -17 45 -21 78 -21 157
0 136 5 145 94 186 210 97 286 146 399 259 55 54 105 117 140 174 29 49 63 94
74 101 31 20 180 29 255 15 36 -6 96 -25 135 -41 102 -43 181 -41 270 6 36 18
89 54 118 78 l51 45 53 -67 c29 -36 70 -100 91 -141z m-361 -1486 c-3 -3 -12
-4 -19 -1 -8 3 -5 6 6 6 11 1 17 -2 13 -5z m-59 -11 c-10 -2 -26 -2 -35 0 -10
3 -2 5 17 5 19 0 27 -2 18 -5z m-1273 -73 c10 -11 16 -20 13 -20 -3 0 -13 9
-23 20 -10 11 -16 20 -13 20 3 0 13 -9 23 -20z m105 -86 c0 -3 -13 4 -30 16
-16 12 -30 24 -30 26 0 3 14 -4 30 -16 17 -12 30 -24 30 -26z m1510 33 c0 -2
-12 -14 -27 -28 l-28 -24 24 28 c23 25 31 32 31 24z m-1430 -83 c0 -2 -9 0
-20 6 -11 6 -20 13 -20 16 0 2 9 0 20 -6 11 -6 20 -13 20 -16z m1360 22 c0 -2
-8 -10 -17 -17 -16 -13 -17 -12 -4 4 13 16 21 21 21 13z m-1290 -62 c0 -2 -13
2 -30 11 -16 9 -30 18 -30 21 0 2 14 -2 30 -11 17 -9 30 -18 30 -21z m483
-141 c-7 -2 -19 -2 -25 0 -7 3 -2 5 12 5 14 0 19 -2 13 -5z m344 1 c-3 -3 -12
-4 -19 -1 -8 3 -5 6 6 6 11 1 17 -2 13 -5z m-309 -71 c-10 -2 -28 -2 -40 0
-13 2 -5 4 17 4 22 1 32 -1 23 -4z m-381 -95 c-3 -8 -6 -5 -6 6 -1 11 2 17 5
13 3 -3 4 -12 1 -19z m560 -95 c-3 -10 -5 -4 -5 12 0 17 2 24 5 18 2 -7 2 -21
0 -30z m-360 21 c-3 -3 -12 -4 -19 -1 -8 3 -5 6 6 6 11 1 17 -2 13 -5z m240
-170 c-3 -3 -12 -4 -19 -1 -8 3 -5 6 6 6 11 1 17 -2 13 -5z"/>
<path d="M2318 7043 c7 -3 16 -2 19 1 4 3 -2 6 -13 5 -11 0 -14 -3 -6 -6z"/>
<path d="M2318 6983 c7 -3 16 -2 19 1 4 3 -2 6 -13 5 -11 0 -14 -3 -6 -6z"/>
<path d="M7393 5903 c15 -2 37 -2 50 0 12 2 0 4 -28 4 -27 0 -38 -2 -22 -4z"/>
<path d="M7398 5883 c7 -3 16 -2 19 1 4 3 -2 6 -13 5 -11 0 -14 -3 -6 -6z"/>
<path d="M7408 5863 c12 -2 30 -2 40 0 9 3 -1 5 -23 4 -22 0 -30 -2 -17 -4z"/>
</g>
</svg>
