<?xml version="1.0" encoding="utf-8"?>
<svg viewBox="0 0 142.5 145.6" style="enable-background:new 0 0 142.5 145.6;" xmlns="http://www.w3.org/2000/svg">
  <defs>
    <style type="text/css">
	.st0{fill:#565656;}
	.st1{fill:url(#SVGID_1_);}
</style>
  </defs>
  <linearGradient id="SVGID_1_" gradientUnits="userSpaceOnUse" x1="71.25" y1="10.4893" x2="71.25" y2="113.3415" gradientTransform="matrix(1, 0, 0, -1, 0, 150.600006)">
    <stop offset="0" style="stop-color:#FCEE1F"/>
    <stop offset="1" style="stop-color:#F15B2A"/>
  </linearGradient>
  <g transform="matrix(0.9823839664459229, 0, 0, 1, 1.0000000298023224, -1.000000029802322)" style="">
    <path class="st0" d="M28.7,131.5c-0.3,7.9-6.6,14.1-14.4,14.1C6.1,145.6,0,139,0,130.9s6.6-14.7,14.7-14.7c3.6,0,7.2,1.6,10.2,4.4 l-2.3,2.9c-2.3-2-5.1-3.4-7.9-3.4c-5.9,0-10.8,4.8-10.8,10.8c0,6.1,4.6,10.8,10.4,10.8c5.2,0,9.3-3.8,10.2-8.8H12.6v-3.5h16.1 V131.5z"/>
    <path class="st0" d="M42.3,129.5h-2.2c-2.4,0-4.4,2-4.4,4.4v11.4h-3.9v-19.6H35v1.6c1.1-1.1,2.7-1.6,4.6-1.6h4.2L42.3,129.5z"/>
    <path class="st0" d="M63.7,145.3h-3.4v-2.5c-2.6,2.5-6.6,3.7-10.7,1.9c-3-1.3-5.3-4.1-5.9-7.4c-1.2-6.3,3.7-11.9,9.9-11.9 c2.6,0,5,1.1,6.7,2.8v-2.5h3.4V145.3z M59.7,137c0.9-4-2.1-7.6-6-7.6c-3.4,0-6.1,2.8-6.1,6.1c0,3.8,3.3,6.7,7.2,6.1 C57.1,141.2,59.1,139.3,59.7,137z"/>
    <path class="st0" d="M71.5,124.7v1.1h6.2v3.4h-6.2v16.1h-3.8v-20.5c0-4.3,3.1-6.8,7-6.8h4.7l-1.6,3.7h-3.1 C72.9,121.6,71.5,123,71.5,124.7z"/>
    <path class="st0" d="M98.5,145.3h-3.3v-2.5c-2.6,2.5-6.6,3.7-10.7,1.9c-3-1.3-5.3-4.1-5.9-7.4c-1.2-6.3,3.7-11.9,9.9-11.9 c2.6,0,5,1.1,6.7,2.8v-2.5h3.4v19.6H98.5z M94.5,137c0.9-4-2.1-7.6-6-7.6c-3.4,0-6.1,2.8-6.1,6.1c0,3.8,3.3,6.7,7.2,6.1 C92,141.2,93.9,139.3,94.5,137z"/>
    <path class="st0" d="M119.4,133.8v11.5h-3.9v-11.6c0-2.4-2-4.4-4.4-4.4c-2.5,0-4.4,2-4.4,4.4v11.6h-3.9v-19.6h3.2v1.7 c1.4-1.3,3.3-2,5.2-2C115.8,125.5,119.4,129.2,119.4,133.8z"/>
    <path class="st0" d="M142.4,145.3h-3.3v-2.5c-2.6,2.5-6.6,3.7-10.7,1.9c-3-1.3-5.3-4.1-5.9-7.4c-1.2-6.3,3.7-11.9,9.9-11.9 c2.6,0,5,1.1,6.7,2.8v-2.5h3.4v19.6H142.4z M138.4,137c0.9-4-2.1-7.6-6-7.6c-3.4,0-6.1,2.8-6.1,6.1c0,3.8,3.3,6.7,7.2,6.1 C135.9,141.2,137.8,139.3,138.4,137z"/>
  </g>
  <path class="st1" d="M 122.9 51.9 C 122.7 50 122.4 47.8 121.8 45.4 C 121.2 43 120.2 40.4 118.9 37.6 C 117.5 34.9 115.8 32 113.5 29.3 C 112.6 28.2 111.6 27.2 110.6 26.1 C 112.2 19.8 108.7 14.3 108.7 14.3 C 102.6 13.9 98.8 16.2 97.4 17.2 C 97.2 17.1 96.9 17 96.7 16.9 C 95.7 16.5 94.6 16.1 93.5 15.7 C 92.4 15.4 91.3 15 90.2 14.8 C 89.1 14.5 87.9 14.3 86.7 14.1 C 86.5 14.1 86.3 14 86.1 14 C 83.5 5.6 75.9 2 75.9 2 C 67.2 7.6 65.5 15.1 65.5 15.1 C 65.5 15.1 65.5 15.3 65.4 15.5 C 64.9 15.6 64.5 15.8 64 15.9 C 63.4 16.1 62.7 16.3 62.1 16.6 C 61.5 16.9 60.8 17.1 60.2 17.4 C 58.9 18 57.7 18.6 56.4 19.3 C 55.2 20 54 20.7 52.9 21.5 C 52.7 21.4 52.6 21.3 52.6 21.3 C 40.9 16.8 30.5 22.2 30.5 22.2 C 29.6 34.7 35.2 42.5 36.3 43.9 C 36 44.7 35.8 45.4 35.5 46.2 C 34.6 49 34 51.9 33.6 54.9 C 33.5 55.3 33.5 55.8 33.4 56.2 C 22.6 61.5 19.4 72.5 19.4 72.5 C 28.4 82.9 39 83.5 39 83.5 C 40.3 85.9 41.9 88.2 43.6 90.3 C 44.3 91.2 45.1 92 45.9 92.9 C 42.6 102.3 46.4 110.2 46.4 110.2 C 56.5 110.6 63.1 105.8 64.5 104.7 C 65.5 105 66.5 105.3 67.5 105.6 C 70.6 106.4 73.8 106.9 76.9 107 C 77.7 107 78.5 107 79.3 107 L 79.7 107 L 80 107 L 80.5 107 L 81 107 C 85.7 113.8 94.1 114.7 94.1 114.7 C 100 108.4 100.4 102.3 100.4 100.9 C 100.4 100.9 100.4 100.9 100.4 100.8 C 100.4 100.7 100.4 100.6 100.4 100.6 C 100.4 100.5 100.4 100.4 100.4 100.3 C 101.6 99.4 102.8 98.5 104 97.5 C 106.4 95.4 108.4 92.9 110.2 90.3 C 110.4 90.1 110.5 89.8 110.7 89.6 C 117.4 90 122.1 85.4 122.1 85.4 C 121 78.4 117 75 116.2 74.4 C 116.2 74.4 116.2 74.4 116.1 74.3 L 116 74.2 L 115.9 74.1 C 115.9 73.7 116 73.3 116 72.8 C 116.1 72 116.1 71.3 116.1 70.5 L 116.1 69.9 L 116.1 69.6 L 116.1 69.5 C 116.1 69.3 116.1 69.4 116.1 69.3 L 116.1 68.8 L 116.1 68.2 C 116.1 68 116.1 67.8 116.1 67.6 C 116.1 67.4 116.1 67.2 116 67 L 115.9 66.4 L 115.8 65.8 C 115.7 65 115.5 64.3 115.4 63.5 C 114.7 60.5 113.5 57.6 112 55.1 C 110.4 52.5 108.5 50.3 106.3 48.3 C 104.1 46.4 101.7 44.8 99.1 43.7 C 96.5 42.5 93.9 41.8 91.2 41.5 C 89.9 41.3 88.5 41.3 87.2 41.3 L 86.7 41.3 L 86.6 41.3 L 86.4 41.3 L 86.2 41.3 L 85.7 41.3 C 85.5 41.3 85.3 41.3 85.2 41.3 C 84.5 41.4 83.8 41.5 83.2 41.6 C 80.5 42.1 78 43.1 75.8 44.4 C 73.6 45.7 71.7 47.4 70.1 49.3 C 68.5 51.2 67.3 53.2 66.5 55.4 C 65.7 57.5 65.2 59.8 65.1 61.9 C 65.1 62.4 65.1 63 65.1 63.5 C 65.1 63.6 65.1 63.8 65.1 63.9 L 65.1 64.3 C 65.1 64.6 65.1 64.8 65.2 65.1 C 65.3 66.2 65.5 67.2 65.8 68.2 C 66.4 70.2 67.3 72 68.5 73.6 C 69.7 75.2 71 76.4 72.5 77.4 C 74 78.4 75.5 79.1 77.1 79.6 C 78.7 80.1 80.2 80.3 81.6 80.2 C 81.8 80.2 82 80.2 82.1 80.2 C 82.2 80.2 82.3 80.2 82.4 80.2 C 82.5 80.2 82.6 80.2 82.7 80.2 C 82.9 80.2 83 80.2 83.2 80.2 L 83.3 80.2 L 83.4 80.2 C 83.5 80.2 83.6 80.2 83.7 80.2 C 83.9 80.2 84.1 80.1 84.2 80.1 C 84.4 80.1 84.5 80 84.7 80 C 85 79.9 85.4 79.8 85.7 79.7 C 86.3 79.5 86.9 79.2 87.5 79 C 88.1 78.7 88.6 78.4 89 78.1 C 89.1 78 89.3 77.9 89.4 77.8 C 89.9 77.4 90 76.7 89.6 76.2 C 89.2 75.8 88.6 75.7 88.1 75.9 C 88 76 87.9 76 87.7 76.1 C 87.3 76.3 86.8 76.5 86.4 76.6 C 85.9 76.7 85.4 76.9 84.9 77 C 84.6 77 84.4 77.1 84.1 77.1 C 84 77.1 83.8 77.1 83.7 77.1 C 83.6 77.1 83.4 77.1 83.3 77.1 C 83.2 77.1 83 77.1 82.9 77.1 C 82.7 77.1 82.6 77.1 82.4 77.1 C 82.4 77.1 82.3 77.1 82.4 77.1 L 82.3 77.1 L 82.2 77.1 C 82.1 77.1 82.1 77.1 82 77.1 C 81.9 77.1 81.7 77.1 81.6 77 C 80.5 76.8 79.3 76.5 78.2 76 C 77.1 75.5 76 74.8 75.1 73.9 C 74.1 73 73.3 72 72.6 70.8 C 71.9 69.6 71.5 68.3 71.3 67 C 71.2 66.3 71.1 65.6 71.2 64.9 C 71.2 64.7 71.2 64.5 71.2 64.3 C 71.2 64.4 71.2 64.3 71.2 64.3 L 71.2 64.2 L 71.2 64.1 C 71.2 64 71.2 63.9 71.2 63.8 C 71.2 63.4 71.3 63.1 71.4 62.7 C 71.9 59.7 73.4 56.8 75.7 54.6 C 76.3 54 76.9 53.5 77.6 53.1 C 78.3 52.6 79 52.2 79.7 51.9 C 80.4 51.6 81.2 51.3 82 51.1 C 82.8 50.9 83.6 50.7 84.4 50.7 C 84.8 50.7 85.2 50.6 85.6 50.6 C 85.7 50.6 85.8 50.6 85.9 50.6 L 86.2 50.6 L 86.4 50.6 C 86.5 50.6 86.4 50.6 86.4 50.6 L 86.5 50.6 L 86.8 50.6 C 87.7 50.7 88.6 50.8 89.4 51 C 91.1 51.4 92.8 52 94.4 52.9 C 97.6 54.7 100.3 57.4 101.9 60.7 C 102.7 62.3 103.3 64.1 103.6 66 C 103.7 66.5 103.7 66.9 103.8 67.4 L 103.8 67.7 L 103.8 68 C 103.8 68.1 103.8 68.2 103.8 68.3 C 103.8 68.4 103.8 68.5 103.8 68.6 L 103.8 68.9 L 103.8 69.2 C 103.8 69.4 103.8 69.8 103.8 70 C 103.8 70.5 103.7 71 103.7 71.5 C 103.6 72 103.6 72.5 103.5 73 C 103.4 73.5 103.3 74 103.2 74.5 C 103 75.5 102.6 76.4 102.3 77.4 C 101.6 79.3 100.6 81.1 99.4 82.7 C 97 86 93.7 88.7 90 90.4 C 88.1 91.2 86.2 91.9 84.2 92.2 C 83.2 92.4 82.2 92.5 81.2 92.5 L 81 92.5 L 80.8 92.5 L 80.5 92.5 L 80 92.5 L 79.7 92.5 C 79.8 92.5 79.7 92.5 79.7 92.5 L 79.6 92.5 C 79.1 92.5 78.5 92.5 78 92.4 C 75.8 92.2 73.7 91.8 71.6 91.2 C 69.5 90.6 67.5 89.8 65.6 88.8 C 61.8 86.8 58.4 83.9 55.7 80.6 C 54.4 78.9 53.2 77.1 52.2 75.2 C 51.2 73.3 50.5 71.3 49.9 69.3 C 49.3 67.3 49 65.2 48.9 63.1 L 48.9 62.7 L 48.9 62.6 L 48.9 62.5 L 48.9 62.3 L 48.9 62 L 48.9 61.9 L 48.9 61.8 L 48.9 61.6 L 48.9 61.1 L 48.9 61 L 48.9 60.8 C 48.9 60.5 48.9 60.3 48.9 60 C 48.9 59 49 57.9 49.2 56.8 C 49.3 55.7 49.5 54.7 49.7 53.6 C 49.9 52.5 50.2 51.5 50.5 50.4 C 51.1 48.3 51.8 46.3 52.7 44.4 C 54.5 40.6 56.8 37.2 59.5 34.5 C 60.2 33.8 60.9 33.2 61.7 32.6 C 62 32.3 62.7 31.7 63.5 31.2 C 64.3 30.7 65.1 30.2 66 29.8 C 66.4 29.6 66.8 29.4 67.3 29.2 C 67.5 29.1 67.7 29 68 28.9 C 68.2 28.8 68.4 28.7 68.7 28.6 C 69.6 28.2 70.5 27.9 71.4 27.6 C 71.6 27.5 71.9 27.5 72.1 27.4 C 72.3 27.3 72.6 27.3 72.8 27.2 C 73.3 27.1 73.7 27 74.2 26.8 C 74.4 26.7 74.7 26.7 74.9 26.6 C 75.1 26.6 75.4 26.5 75.6 26.5 C 75.8 26.5 76.1 26.4 76.3 26.4 L 76.7 26.3 L 77.1 26.2 C 77.3 26.2 77.6 26.1 77.8 26.1 C 78.1 26.1 78.3 26 78.6 26 C 78.8 26 79.2 25.9 79.4 25.9 C 79.6 25.9 79.7 25.9 79.9 25.8 L 80.2 25.8 L 80.4 25.8 L 80.6 25.8 C 80.9 25.8 81.1 25.8 81.4 25.7 L 81.8 25.7 C 81.8 25.7 81.9 25.7 81.8 25.7 L 81.9 25.7 L 82.1 25.7 C 82.3 25.7 82.6 25.7 82.8 25.7 C 83.7 25.7 84.6 25.7 85.5 25.7 C 87.3 25.8 89.1 26 90.8 26.3 C 94.2 26.9 97.5 28 100.4 29.5 C 103.3 30.9 106 32.7 108.2 34.6 C 108.3 34.7 108.5 34.8 108.6 35 C 108.7 35.1 108.9 35.2 109 35.4 C 109.3 35.6 109.5 35.9 109.8 36.1 C 110.1 36.3 110.3 36.6 110.6 36.8 C 110.8 37.1 111.1 37.3 111.3 37.6 C 112.3 38.6 113.2 39.7 114 40.7 C 115.6 42.8 116.9 44.9 117.9 46.9 C 118 47 118 47.1 118.1 47.3 C 118.2 47.4 118.2 47.5 118.3 47.7 C 118.4 47.9 118.5 48.2 118.7 48.4 C 118.8 48.6 118.9 48.9 119 49.1 C 119.1 49.3 119.2 49.6 119.3 49.8 C 119.7 50.7 120 51.6 120.3 52.5 C 120.8 53.9 121.1 55.1 121.4 56.1 C 121.5 56.5 121.9 56.8 122.3 56.8 C 122.8 56.8 123.1 56.4 123.1 55.9 C 123 54.7 123 53.4 122.9 51.9 Z" transform="matrix(1, 0, 0, 1, -1.7763568394002505e-15, 0)"/>
</svg>