<?xml version="1.0" encoding="UTF-8" standalone="no"?>
<!-- Created with Inkscape (http://www.inkscape.org/) -->

<svg
   xmlns:dc="http://purl.org/dc/elements/1.1/"
   xmlns:cc="http://creativecommons.org/ns#"
   xmlns:rdf="http://www.w3.org/1999/02/22-rdf-syntax-ns#"
   xmlns:svg="http://www.w3.org/2000/svg"
   xmlns="http://www.w3.org/2000/svg"
   xmlns:sodipodi="http://sodipodi.sourceforge.net/DTD/sodipodi-0.dtd"
   xmlns:inkscape="http://www.inkscape.org/namespaces/inkscape"
   width="126.9929mm"
   height="48.995865mm"
   viewBox="0 0 126.9929 48.995865"
   version="1.1"
   id="svg7490"
   inkscape:version="0.92.3 (2405546, 2018-03-11)"
   sodipodi:docname="orc.svg">
  <defs
     id="defs7484" />
  <sodipodi:namedview
     id="base"
     pagecolor="#ffffff"
     bordercolor="#666666"
     borderopacity="1.0"
     inkscape:pageopacity="0.0"
     inkscape:pageshadow="2"
     inkscape:zoom="3.959798"
     inkscape:cx="83.624906"
     inkscape:cy="81.537854"
     inkscape:document-units="mm"
     inkscape:current-layer="g8046"
     showgrid="false"
     fit-margin-top="0"
     fit-margin-left="0"
     fit-margin-right="0"
     fit-margin-bottom="0"
     inkscape:window-width="3726"
     inkscape:window-height="2049"
     inkscape:window-x="114"
     inkscape:window-y="55"
     inkscape:window-maximized="1" />
  <metadata
     id="metadata7487">
    <rdf:RDF>
      <cc:Work
         rdf:about="">
        <dc:format>image/svg+xml</dc:format>
        <dc:type
           rdf:resource="http://purl.org/dc/dcmitype/StillImage" />
        <dc:title />
      </cc:Work>
    </rdf:RDF>
  </metadata>
  <g
     inkscape:label="Layer 1"
     inkscape:groupmode="layer"
     id="layer1"
     transform="translate(138.53055,-96.65263)">
    <path
       style="opacity:1;fill:#62d05d;fill-opacity:1;stroke:none;stroke-width:0.41216728;stroke-linecap:round;stroke-linejoin:bevel;stroke-miterlimit:4;stroke-dasharray:none;stroke-opacity:1"
       d="m -68.844836,114.56572 a 12.803944,12.706575 0 0 0 -12.80387,12.70671 12.803944,12.706575 0 0 0 12.80387,12.70672 12.803944,12.706575 0 0 0 12.80387,-12.70672 12.803944,12.706575 0 0 0 -12.80387,-12.70671 z m -0.0093,2.31923 a 10.441592,10.362189 0 0 1 10.441741,10.36216 10.441592,10.362189 0 0 1 -10.441741,10.36216 10.441592,10.362189 0 0 1 -10.441739,-10.36216 10.441592,10.362189 0 0 1 10.441739,-10.36216 z"
       id="path8099"
       inkscape:connector-curvature="0" />
    <g
       id="g8046"
       transform="translate(11.49259,-60.402913)">
      <path
         style="fill:#050704;stroke-width:0.26458335"
         d="m -129.66248,205.7754 c -9.82903,-1.73552 -17.32343,-8.78411 -19.83282,-18.65306 -0.70378,-2.76782 -0.70378,-8.34467 0,-11.1125 2.11546,-8.3197 7.70498,-14.63238 15.46316,-17.46376 11.97509,-4.37037 25.30912,1.16379 30.73363,12.75569 2.90142,6.20016 2.90142,14.32848 0,20.52865 -3.1428,6.71601 -9.34887,11.83138 -16.43475,13.54637 -2.95379,0.71491 -7.17756,0.88447 -9.92922,0.39861 z m 6.8943,-12.10174 c 2.78875,-4.39309 2.75811,-4.27338 1.67431,-6.54042 -0.71056,-1.48632 -3.69366,-4.50881 -4.45005,-4.50881 -1.42278,0 -5.27366,4.85114 -5.27366,6.6435 0,0.37553 0.49382,1.44539 1.09738,2.37745 0.60356,0.93207 1.73198,2.67694 2.5076,3.87748 0.77561,1.20055 1.51701,2.18282 1.64754,2.18282 0.13053,0 1.38913,-1.81441 2.79688,-4.03202 z m -10.99473,-6.23158 c 0.30019,-0.9883 1.02521,-2.53867 1.61116,-3.44524 1.1604,-1.79536 4.00132,-4.733 5.60084,-5.79151 l 1.00691,-0.66633 1.29687,0.95199 c 3.16224,2.32129 6.23341,6.40746 6.93817,9.23116 0.17314,0.6937 0.42205,1.32756 0.55314,1.40858 0.2197,0.13578 7.20353,-3.35484 7.73717,-3.86715 0.27598,-0.26494 -1.26906,-3.6386 -2.51055,-5.48187 -0.46612,-0.69208 -1.57365,-2.14688 -2.46117,-3.23288 -1.60143,-1.95958 -1.61467,-1.98969 -1.74596,-3.96875 l -0.13229,-1.9942 -2.18211,-0.0768 -2.1821,-0.0768 -2.5208,-1.70911 c -1.38645,-0.94 -2.67751,-1.7091 -2.86903,-1.7091 -0.19152,0 -1.40897,0.74414 -2.70543,1.65365 l -2.3572,1.65364 -2.38125,0.13229 -2.38125,0.13229 -0.13229,2.12912 c -0.13114,2.11051 -0.14414,2.14289 -1.48751,3.70417 -2.62304,3.04852 -5.37712,7.81784 -5.03273,8.71531 0.12241,0.31901 7.06428,4.04615 7.61895,4.09067 0.095,0.008 0.41827,-0.79476 0.71846,-1.78307 z"
         id="path8048"
         inkscape:connector-curvature="0" />
      <path
         style="opacity:1;fill:#62d05d;fill-opacity:1;stroke:#62d05d;stroke-width:0.2;stroke-linecap:round;stroke-linejoin:round;stroke-miterlimit:4;stroke-dasharray:none;stroke-opacity:1"
         d="m -126.27719,196.73984 c -0.96338,-1.31061 -3.57222,-5.38864 -4.03964,-6.31458 -0.2204,-0.43662 -0.40073,-0.99907 -0.40073,-1.24991 0,-0.56531 0.84739,-2.27261 1.66776,-3.36015 0.87218,-1.15623 2.40315,-2.675 2.96544,-2.94183 0.43661,-0.20718 0.52422,-0.21007 0.89866,-0.0296 1.12209,0.5407 3.37934,3.0557 4.17425,4.65087 0.62198,1.24816 0.64868,1.89631 0.12072,2.931 -0.67418,1.32123 -4.49386,7.21628 -4.67577,7.21628 -0.0262,0 -0.34601,-0.40592 -0.71069,-0.90204 z"
         id="path8056"
         inkscape:connector-curvature="0" />
      <g
         aria-label="Apache"
         style="font-style:normal;font-variant:normal;font-weight:normal;font-stretch:normal;font-size:9.32318687px;line-height:125%;font-family:Montserrat;-inkscape-font-specification:Montserrat;letter-spacing:0px;word-spacing:0px;fill:#62d05d;fill-opacity:1;stroke:none;stroke-width:0.33902496px;stroke-linecap:butt;stroke-linejoin:miter;stroke-opacity:1"
         id="text8060">
        <path
           d="m -82.201,170.44556 -0.736532,-1.66885 h -3.552134 l -0.727209,1.66885 h -0.792471 l 2.927481,-6.52623 h 0.773824 l 2.918158,6.52623 z m -3.981001,-2.35877 h 2.946127 l -1.482387,-3.35635 z"
           style="font-style:normal;font-variant:normal;font-weight:300;font-stretch:normal;font-size:9.32318687px;font-family:Montserrat;-inkscape-font-specification:'Montserrat Light';fill:#62d05d;fill-opacity:1;stroke-width:0.33902496px"
           id="path8158" />
        <path
           d="m -77.793464,165.51359 q 0.689916,0 1.221338,0.31699 0.540745,0.31699 0.839087,0.8857 0.298342,0.55939 0.298342,1.2866 0,0.71789 -0.298342,1.2866 -0.289019,0.55939 -0.820441,0.87638 -0.531421,0.30767 -1.221337,0.30767 -0.652623,0 -1.146752,-0.2797 -0.484806,-0.28902 -0.764501,-0.80179 v 2.86221 h -0.727209 v -6.71269 h 0.727209 v 1.05352 q 0.279695,-0.51277 0.764501,-0.79247 0.494129,-0.28902 1.128105,-0.28902 z m -0.130524,4.31664 q 0.503452,0 0.904349,-0.23308 0.400897,-0.24241 0.624653,-0.66195 0.223757,-0.41954 0.223757,-0.95096 0,-0.5221 -0.223757,-0.94165 -0.223756,-0.42886 -0.624653,-0.66194 -0.400897,-0.24241 -0.904349,-0.24241 -0.512775,0 -0.913672,0.24241 -0.400898,0.23308 -0.624654,0.65262 -0.223756,0.41954 -0.223756,0.95097 0,0.53142 0.223756,0.95096 0.223756,0.41954 0.624654,0.66195 0.400897,0.23308 0.913672,0.23308 z"
           style="font-style:normal;font-variant:normal;font-weight:300;font-stretch:normal;font-size:9.32318687px;font-family:Montserrat;-inkscape-font-specification:'Montserrat Light';fill:#62d05d;fill-opacity:1;stroke-width:0.33902496px"
           id="path8160" />
        <path
           d="m -71.110777,170.44556 v -0.7645 q -0.587361,0.79247 -1.799375,0.79247 -0.494129,0 -0.87638,-0.19579 -0.382251,-0.19579 -0.587361,-0.53142 -0.20511,-0.33564 -0.20511,-0.75518 0,-0.6433 0.484806,-1.01623 0.484806,-0.38225 1.351862,-0.39157 h 1.612911 v -0.30767 q 0,-0.55006 -0.335634,-0.84841 -0.335635,-0.30766 -0.978935,-0.30766 -0.755178,0 -1.556972,0.56871 l -0.307665,-0.51277 q 0.522098,-0.34496 0.960288,-0.50346 0.447513,-0.15849 1.044197,-0.15849 0.904349,0 1.389155,0.44751 0.494128,0.44752 0.503452,1.23999 l 0.0093,3.24447 z m -1.659528,-0.57804 q 0.624654,0 1.062844,-0.28902 0.447513,-0.29834 0.58736,-0.82044 v -0.59668 h -1.529002 q -1.249307,0 -1.249307,0.80179 0,0.41022 0.307665,0.66195 0.307665,0.2424 0.82044,0.2424 z"
           style="font-style:normal;font-variant:normal;font-weight:300;font-stretch:normal;font-size:9.32318687px;font-family:Montserrat;-inkscape-font-specification:'Montserrat Light';fill:#62d05d;fill-opacity:1;stroke-width:0.33902496px"
           id="path8162" />
        <path
           d="m -65.356769,166.74425 q -0.596684,-0.57804 -1.463741,-0.57804 -0.503452,0 -0.904349,0.23308 -0.391573,0.23308 -0.61533,0.65263 -0.223756,0.41022 -0.223756,0.94164 0,0.54074 0.223756,0.96029 0.223757,0.41022 0.61533,0.6433 0.400897,0.23308 0.904349,0.23308 0.484806,0 0.867057,-0.1585 0.391574,-0.16782 0.652623,-0.47548 l 0.419543,0.42887 q -0.335634,0.40089 -0.839086,0.62465 -0.503453,0.22376 -1.128106,0.22376 -0.708562,0 -1.25863,-0.30767 -0.550068,-0.31699 -0.867057,-0.87638 -0.307665,-0.56871 -0.307665,-1.29592 0,-0.71789 0.307665,-1.27728 0.316989,-0.56871 0.867057,-0.8857 0.559391,-0.31699 1.25863,-0.31699 0.587361,0 1.062843,0.19579 0.484806,0.18646 0.829764,0.53142 z"
           style="font-style:normal;font-variant:normal;font-weight:300;font-stretch:normal;font-size:9.32318687px;font-family:Montserrat;-inkscape-font-specification:'Montserrat Light';fill:#62d05d;fill-opacity:1;stroke-width:0.33902496px"
           id="path8164" />
        <path
           d="m -60.87654,165.51359 q 0.876379,0 1.370508,0.51278 0.494129,0.50345 0.494129,1.39847 v 3.02072 h -0.727209 v -2.83425 q 0,-0.65263 -0.372927,-1.02555 -0.363604,-0.37293 -1.016227,-0.37293 -0.773825,0.009 -1.221338,0.51278 -0.43819,0.49412 -0.43819,1.31456 v 2.40539 h -0.727208 v -6.91781 h 0.727208 v 3.11395 q 0.484806,-1.10946 1.911254,-1.12811 z"
           style="font-style:normal;font-variant:normal;font-weight:300;font-stretch:normal;font-size:9.32318687px;font-family:Montserrat;-inkscape-font-specification:'Montserrat Light';fill:#62d05d;fill-opacity:1;stroke-width:0.33902496px"
           id="path8166" />
        <path
           d="m -55.449427,165.51359 q 1.165398,0 1.752759,0.74586 0.596684,0.73653 0.540745,2.00448 h -4.008971 q 0.09323,0.72721 0.578038,1.1654 0.484806,0.43819 1.202691,0.43819 0.447513,0 0.839087,-0.1585 0.391574,-0.16781 0.680592,-0.46615 l 0.400897,0.41954 q -0.354281,0.39157 -0.867056,0.60601 -0.503452,0.20511 -1.109459,0.20511 -0.717886,0 -1.277277,-0.30767 -0.550068,-0.31699 -0.857733,-0.87638 -0.307665,-0.56871 -0.307665,-1.29592 0,-0.71789 0.307665,-1.27728 0.307665,-0.56871 0.857733,-0.8857 0.559391,-0.31699 1.267954,-0.31699 z m 1.64088,2.1723 q -0.03729,-0.71788 -0.484805,-1.13743 -0.43819,-0.42886 -1.156075,-0.42886 -0.708563,0 -1.174722,0.42886 -0.466159,0.41955 -0.540745,1.13743 z"
           style="font-style:normal;font-variant:normal;font-weight:300;font-stretch:normal;font-size:9.32318687px;font-family:Montserrat;-inkscape-font-specification:'Montserrat Light';fill:#62d05d;fill-opacity:1;stroke-width:0.33902496px"
           id="path8168" />
      </g>
      <g
         aria-label="orc"
         transform="matrix(0.96572423,0,0,1.0354923,9.0714286,-55.751488)"
         style="font-style:normal;font-variant:normal;font-weight:normal;font-stretch:normal;font-size:12.93615723px;line-height:125%;font-family:Montserrat;-inkscape-font-specification:Montserrat;letter-spacing:0px;word-spacing:0px;fill:#62d05d;fill-opacity:1;stroke:none;stroke-width:0.47040573px;stroke-linecap:butt;stroke-linejoin:miter;stroke-opacity:1"
         id="text8068" />
      <path
         style="opacity:1;fill:#62d05d;fill-opacity:1;stroke:none;stroke-width:0.28634247;stroke-linecap:round;stroke-linejoin:bevel;stroke-miterlimit:4;stroke-dasharray:none;stroke-opacity:1"
         d="m 91.780038,37.756957 c -1.863503,0.848832 -3.570197,2.000997 -5.30177,3.085439 -4.520439,2.936634 -8.833749,6.186009 -13.329196,9.15422 -0.369449,0.249665 -0.85966,0.101456 -1.280467,0.185233 -5.581492,0.340766 -11.166632,0.618455 -16.749015,0.943353 -0.140524,0.470198 -0.07812,1.02993 -0.144535,1.53247 -0.266778,3.793743 -0.410954,7.600747 -0.803293,11.381781 -0.198732,1.724592 -0.719308,3.44007 -1.760915,4.846035 -1.834203,2.564362 -4.026424,4.844795 -5.959159,7.332668 -3.964019,4.977781 -7.543766,10.258805 -10.781615,15.734972 -1.959589,3.397952 -3.871795,6.854328 -5.216981,10.549402 -0.336091,1.04673 -0.718474,2.1416 -0.615554,3.25587 0.117851,0.69721 0.871434,0.97597 1.367731,1.36563 3.88806,2.47342 7.952489,4.65513 11.998294,6.85629 4.493422,2.39625 9.004189,4.76877 13.621769,6.91865 0.60657,0.23316 1.192212,0.58592 1.841506,0.67438 0.420792,-0.0878 0.520406,-0.61227 0.718658,-0.93211 1.473027,-3.35621 2.302274,-6.95409 3.786069,-10.30564 1.784491,-4.11366 3.862995,-8.14201 6.656751,-11.66976 3.715531,-4.770212 7.875164,-9.190672 12.290733,-13.318832 2.340956,-2.174215 4.795108,-4.241981 7.487689,-5.970852 0.975488,-0.638203 1.932312,-1.313189 2.947315,-1.886121 3.460664,2.508035 6.969303,4.973626 10.128337,7.864053 5.73501,5.202679 10.80201,11.15632 14.9653,17.686322 2.13327,3.41425 4.07956,6.98417 5.36005,10.811 0.76672,2.31215 1.20349,4.75783 2.34452,6.93039 0.1607,0.23465 0.37725,0.66823 0.71434,0.4408 2.536,-0.86133 4.93436,-2.07344 7.36128,-3.19532 6.20603,-2.98366 12.36595,-6.07209 18.38787,-9.41353 1.11362,-0.65348 2.27787,-1.24675 3.27577,-2.07517 0.0329,-1.50389 -0.60675,-2.93093 -1.10436,-4.32657 -1.82482,-4.577285 -4.06463,-8.983601 -6.54513,-13.238493 -2.39343,-4.083863 -5.34595,-7.799599 -8.23529,-11.536509 -2.16693,-2.814108 -4.49911,-5.498121 -6.62333,-8.345117 -1.20801,-1.611298 -2.21021,-3.435507 -2.4995,-5.453925 -0.41718,-2.724158 -0.47367,-5.494112 -0.69032,-8.24198 -0.0995,-1.401436 -0.17128,-2.806186 -0.30905,-4.204074 -0.33388,-0.135851 -0.75992,-0.04974 -1.12341,-0.10335 -5.12715,-0.210548 -10.257,-0.349895 -15.38393,-0.565481 -4.7973,-3.230212 -9.53947,-6.544899 -14.417714,-9.652681 -1.79739,-1.091733 -3.569829,-2.250894 -5.491989,-3.114183 -0.311092,-0.180978 -0.576298,-0.178159 -0.887459,7.4e-4 z"
         id="path2429"
         inkscape:connector-curvature="0"
         transform="matrix(0.26458333,0,0,0.26458333,-150.02314,157.05554)" />
    </g>
    <path
       style="fill:#62d05d;fill-opacity:1;stroke-width:0.26458335"
       d="m -51.264702,139.69928 c -0.073,-0.19033 -0.101677,-5.64434 -0.06373,-12.12002 l 0.069,-11.77396 h 1.190625 1.190625 l 0.03655,5.75923 c 1.831165,-2.48053 4.447975,-5.7428 9.051569,-5.99483 l 1.495213,-0.029 v 1.1787 1.1787 c -5.106821,-0.008 -8.554992,3.19932 -9.93077,6.78301 -0.495051,1.32967 -0.385388,2.72172 -0.510951,8.58667 l -0.141613,6.61459 -1.1269,0.0815 c -0.746596,0.054 -1.171691,-0.0353 -1.259628,-0.26458 z"
       id="path8097"
       inkscape:connector-curvature="0"
       sodipodi:nodetypes="cscccccccccscccc" />
    <path
       style="opacity:1;fill:#62d05d;fill-opacity:1;stroke:none;stroke-width:0.41216728;stroke-linecap:round;stroke-linejoin:bevel;stroke-miterlimit:4;stroke-dasharray:none;stroke-opacity:1"
       d="m -26.04841,114.56571 a 12.803944,12.706575 0 0 0 -12.803869,12.70672 12.803944,12.706575 0 0 0 12.803869,12.70672 12.803944,12.706575 0 0 0 10.572998,-5.56141 l -1.940967,-1.35651 a 10.441592,10.362189 0 0 1 -8.641332,4.54804 10.441592,10.362189 0 0 1 -10.44174,-10.36216 10.441592,10.362189 0 0 1 10.44174,-10.36216 10.441592,10.362189 0 0 1 7.81916,3.51451 l 1.876372,-1.42678 a 12.803944,12.706575 0 0 0 -9.686231,-4.40697 z"
       id="path8099-3"
       inkscape:connector-curvature="0" />
    <g
       aria-label="TM"
       style="font-style:normal;font-variant:normal;font-weight:normal;font-stretch:normal;font-size:3.51946521px;line-height:125%;font-family:Montserrat;-inkscape-font-specification:Montserrat;letter-spacing:0px;word-spacing:0px;fill:#62d05d;fill-opacity:1;stroke:none;stroke-width:0.12798055px;stroke-linecap:butt;stroke-linejoin:miter;stroke-opacity:1"
       id="text8137">
      <path
         d="m -15.509417,113.69897 v 2.08001 h -0.415296 v -2.08001 h -0.746127 v -0.3801 h 1.90755 v 0.3801 z"
         style="fill:#62d05d;fill-opacity:1;stroke-width:0.12798055px"
         id="path8171" />
      <path
         d="m -13.899206,115.77898 h -0.415297 v -2.46011 h 0.647582 l 0.742607,1.54505 0.742607,-1.54505 h 0.644062 v 2.46011 h -0.415297 v -1.92163 l -0.858749,1.70694 h -0.232285 l -0.85523,-1.70694 z"
         style="fill:#62d05d;fill-opacity:1;stroke-width:0.12798055px"
         id="path8173" />
    </g>
  </g>
</svg>
