<?xml version="1.0" encoding="UTF-8" standalone="no"?>
<!-- Created with Inkscape (http://www.inkscape.org/) -->

<svg
   xmlns:dc="http://purl.org/dc/elements/1.1/"
   xmlns:cc="http://creativecommons.org/ns#"
   xmlns:rdf="http://www.w3.org/1999/02/22-rdf-syntax-ns#"
   xmlns:svg="http://www.w3.org/2000/svg"
   xmlns="http://www.w3.org/2000/svg"
   xmlns:sodipodi="http://sodipodi.sourceforge.net/DTD/sodipodi-0.dtd"
   xmlns:inkscape="http://www.inkscape.org/namespaces/inkscape"
   width="238.20644mm"
   height="48.596832mm"
   viewBox="0 0 238.20644 48.596832"
   version="1.1"
   id="svg2237"
   inkscape:version="0.92.3 (2405546, 2018-03-11)"
   sodipodi:docname="parquet.svg">
  <defs
     id="defs2231" />
  <sodipodi:namedview
     id="base"
     pagecolor="#ffffff"
     bordercolor="#666666"
     borderopacity="1.0"
     inkscape:pageopacity="0.0"
     inkscape:pageshadow="2"
     inkscape:zoom="0.98994949"
     inkscape:cx="17.362763"
     inkscape:cy="-233.29952"
     inkscape:document-units="mm"
     inkscape:current-layer="layer1"
     showgrid="false"
     fit-margin-top="0"
     fit-margin-left="0"
     fit-margin-right="0"
     fit-margin-bottom="0"
     inkscape:window-width="3726"
     inkscape:window-height="2049"
     inkscape:window-x="114"
     inkscape:window-y="55"
     inkscape:window-maximized="1" />
  <metadata
     id="metadata2234">
    <rdf:RDF>
      <cc:Work
         rdf:about="">
        <dc:format>image/svg+xml</dc:format>
        <dc:type
           rdf:resource="http://purl.org/dc/dcmitype/StillImage" />
        <dc:title></dc:title>
      </cc:Work>
    </rdf:RDF>
  </metadata>
  <g
     inkscape:label="Layer 1"
     inkscape:groupmode="layer"
     id="layer1"
     transform="translate(124.41235,-38.509337)">
    <path
       style="fill:#50abf1;fill-opacity:1;stroke-width:0.26458332"
       d="m -96.132174,84.473098 c -2.45176,-2.61569 -2.525,-2.72897 -2.08429,-3.22357 0.69857,-0.784 30.4958,-28.05978 30.923573,-28.30682 0.370096,-0.21373 4.023447,1.5502 4.821637,2.328 0.305998,0.29819 -2.068179,2.83579 -15.02077,16.05471 -8.46132,8.6353 -15.54507,15.73611 -15.74165,15.77959 -0.19659,0.0435 -1.50091,-1.14089 -2.8985,-2.63191 z m 131.650973,-0.2703 c -0.233733,-0.23374 -0.325372,-1.68906 -0.325372,-5.16725 0,-2.66303 -0.07009,-4.84187 -0.155747,-4.84187 -0.08566,0 -0.767559,0.53519 -1.515329,1.18933 -1.782437,1.55923 -3.341309,2.06787 -5.953578,1.94258 -5.820412,-0.27915 -9.29949,-5.31125 -9.29949,-13.45066 0,-5.08481 1.201494,-8.60575 3.763476,-11.02877 2.680274,-2.53489 6.454013,-3.205614 9.588793,-1.70426 0.873125,0.41818 1.937197,1.13246 2.364605,1.5873 0.427408,0.45483 0.867371,0.82698 0.977691,0.82698 0.110321,0 0.236874,-0.56555 0.281229,-1.25677 l 0.08064,-1.25678 3.375413,-0.0741 3.375415,-0.0741 -0.06812,16.74282 -0.06812,16.74281 -3.048066,0.074 c -2.145618,0.0521 -3.144401,-0.0223 -3.373438,-0.25135 z m -3.183319,-13.348 c 3.749257,-1.91542 4.090027,-10.82499 0.518226,-13.54933 -1.300107,-0.99164 -3.542789,-1.1135 -4.797732,-0.26068 -1.847299,1.25535 -2.916713,3.74662 -2.916713,6.79465 0,5.56815 3.448505,8.92999 7.196219,7.01536 z m -135.23146,6.66938 c -1.3218,-1.32871 -2.15786,-2.37251 -2.07445,-2.5899 0.15068,-0.39266 17.280786,-14.23912 17.601056,-14.22713 0.39482,0.0148 4.42634,3.07772 4.42634,3.3629 0,0.30012 -17.220596,15.67988 -17.556646,15.67988 -0.10016,0 -1.17849,-1.00159 -2.3963,-2.22575 z m 185.780859,-0.29215 c -2.26151,-0.49128 -4.026201,-1.51306 -5.7693,-3.34052 -2.44792,-2.56639 -3.560924,-5.68693 -3.553659,-9.96346 0.0099,-5.84428 2.511507,-10.42514 6.862953,-12.56735 1.620764,-0.7979 1.890753,-0.84723 4.636948,-0.84723 2.612059,0 3.074154,0.0741 4.433575,0.71124 4.142375,1.94139 6.703126,7.04215 6.497378,12.94213 l -0.07747,2.22163 -7.531613,0.0704 c -4.142388,0.0387 -7.634441,0.17319 -7.760123,0.29887 -0.368877,0.36888 0.858541,2.87147 1.824164,3.7193 2.109542,1.8522 5.103522,1.73514 7.954651,-0.31103 l 1.208206,-0.86709 1.046327,1.19063 c 0.575482,0.65484 1.362318,1.59397 1.748525,2.08694 l 0.702194,0.89633 -1.183667,1.06013 c -2.088015,1.8701 -5.492382,3.13352 -8.297381,3.07931 -0.598601,-0.0116 -1.832369,-0.18265 -2.741705,-0.38019 z m 6.09727,-15.53992 c 0.404199,-0.30106 0.409916,-0.45899 0.06372,-1.7607 -0.937474,-3.52499 -4.144846,-5.00237 -6.520444,-3.00343 -0.93729,0.78867 -1.422104,1.67069 -1.847988,3.36203 -0.261935,1.04024 -0.252902,1.29788 0.05227,1.49112 0.594561,0.37649 7.73081,0.29951 8.252433,-0.089 z m -109.153321,15.31418 c -3.520699,-1.31 -5.460037,-5.21278 -4.692785,-9.44392 0.534509,-2.94764 1.853163,-4.71384 4.362593,-5.84323 1.787015,-0.80426 6.014966,-1.00495 8.14238,-0.3865 0.805233,0.23409 1.522296,0.42562 1.593472,0.42562 0.344456,0 0.426008,-0.9625 0.164933,-1.94656 -0.32712,-1.23302 -1.055253,-2.13511 -2.227868,-2.76014 -1.187657,-0.63305 -4.155086,-0.53951 -6.46689,0.20383 -1.088007,0.34984 -1.986042,0.50923 -2.105264,0.37366 -0.293806,-0.33409 -1.614304,-4.19889 -1.614304,-4.7247 0,-1.00553 4.593878,-2.28305 8.319529,-2.31358 4.398494,-0.036 7.2604781,1.05552 9.0063531,3.43506 1.811298,2.46871 1.856409,2.79484 1.856409,13.42097 v 9.525 l -3.020404,0.0752 c -1.661221,0.0414 -3.126213,-0.0306 -3.2555361,-0.15991 -0.129323,-0.12932 -0.284589,-0.6259 -0.345033,-1.10351 -0.06044,-0.4776 -0.169032,-0.9275 -0.241305,-0.99977 -0.07227,-0.0723 -0.553733,0.2394 -1.069906,0.6926 -1.613914,1.41704 -2.455442,1.72026 -5.032399,1.81328 -1.582928,0.0571 -2.714064,-0.0379 -3.373975,-0.28342 z m 7.844348,-5.26436 c 1.372659,-0.78696 2.011918,-2.04232 2.011918,-3.95096 0,-1.8887 -0.331311,-2.11604 -3.307291,-2.26946 -1.893568,-0.0976 -2.213867,-0.0429 -3.038854,0.51915 -1.265174,0.86194 -1.632809,1.66767 -1.514967,3.32027 0.153107,2.14709 1.085961,2.93692 3.495487,2.95954 0.902775,0.008 1.650283,-0.17526 2.353707,-0.57854 z m 64.763821,5.291 c -1.460362,-0.46732 -3.377832,-2.4045 -4.065428,-4.10722 -0.599999,-1.48579 -0.609844,-1.67452 -0.610137,-11.69662 l -2.65e-4,-10.18646 3.360163,-0.074 3.360164,-0.0739 0.07942,8.8052 c 0.07064,7.83173 0.131217,8.9 0.547946,9.66261 1.381223,2.52763 4.997588,2.50834 6.357692,-0.0339 0.56008,-1.04688 0.585348,-1.41635 0.667538,-9.76093 l 0.08543,-8.67287 3.354158,0.0739 3.354128,0.0739 0.06873,12.66978 c 0.05043,9.29616 -0.01281,12.76802 -0.237522,13.03878 -0.23673,0.28525 -1.003144,0.35217 -3.376025,0.29482 l -3.06977,-0.0742 -0.08285,-1.19062 c -0.04557,-0.65485 -0.182245,-1.29159 -0.303725,-1.41498 -0.121481,-0.12339 -0.739042,0.28111 -1.37236,0.89889 -1.660498,1.61976 -2.869062,2.09623 -5.252524,2.07076 -1.091406,-0.0117 -2.380549,-0.14797 -2.864763,-0.30292 z m 53.337753,0.0843 c -1.56532,-0.49732 -2.55608,-1.35978 -3.29825,-2.87112 l -0.74036,-1.50766 -0.0866,-8.00365 -0.0866,-8.00364 h -1.00551 c -1.456194,0 -1.631611,-0.3653 -1.543594,-3.2145 0.07474,-2.41942 0.09103,-2.47568 0.737886,-2.54812 1.958688,-0.21933 1.852088,-0.0284 1.852088,-3.317633 0,-1.968695 0.10808,-3.092833 0.3175,-3.302251 0.45031,-0.450315 6.18747,-0.438602 6.4799,0.01323 0.11773,0.181901 0.27358,1.699948 0.34635,3.373438 l 0.13229,3.042706 2.45624,0.0762 2.45625,0.0762 -0.075,2.83423 -0.075,2.83422 -2.4474,0.0761 -2.44739,0.0761 v 6.73695 c 0,8.48436 -0.17402,8.18618 4.36562,7.48064 0.49453,-0.0769 0.53413,0.0873 0.60502,2.50803 l 0.0759,2.59028 -1.26648,0.57806 c -1.38243,0.631 -5.37452,0.91018 -6.75287,0.47226 z m -156.710788,-0.3357 c -0.07126,-0.18641 -0.0987,-7.89938 -0.06098,-17.13996 l 0.06857,-16.801039 7.14375,0.01566 c 6.696792,0.01468 7.251351,0.05286 8.863542,0.610289 4.704141,1.626491 7.274324,5.081939 7.603169,10.22197 0.335826,5.24915 -2.045853,9.55628 -6.358829,11.49956 -2.248722,1.0132 -3.969726,1.33273 -7.178092,1.33273 -1.945326,0 -2.816503,0.10097 -3.023537,0.35043 -0.18189,0.21916 -0.317913,2.17657 -0.363125,5.22552 l -0.07229,4.87509 -3.246308,0.0743 c -2.450169,0.0561 -3.278085,-0.009 -3.375867,-0.26458 z m 13.501341,-17.11086 c 1.952704,-0.90124 3.051964,-2.70784 3.031096,-4.98154 -0.03363,-3.66426 -1.849229,-5.264104 -6.301341,-5.552544 -3.639341,-0.235783 -3.47663,-0.485387 -3.47663,5.333284 0,2.67511 0.07227,5.05217 0.1606,5.28235 0.247639,0.64534 5.142637,0.58473 6.586275,-0.0816 z m 39.3204331,17.07244 c -0.215996,-0.26025 -0.280393,-3.89554 -0.230834,-13.03072 l 0.06873,-12.66978 3.286419,-0.0747 c 2.451417,-0.0557 3.34111,0.0115 3.501678,0.26458 0.118393,0.18658 0.217083,0.96432 0.21931,1.7283 0.004,1.35955 0.350526,1.85232 0.646616,0.91942 0.207502,-0.65377 1.9432769,-2.39616 2.8586109,-2.8695 0.418332,-0.21633 1.349518,-0.46307 2.069298,-0.54832 l 1.308693,-0.15499 v 3.71776 3.71777 l -1.124479,0.18724 c -1.87053,0.31147 -3.073265,0.9242 -4.0469,2.06167 -1.5136899,1.7684 -1.7077879,2.89377 -1.7077879,9.90156 0,3.75893 -0.107489,6.38792 -0.273891,6.69885 -0.246076,0.45979 -0.578681,0.51177 -3.274896,0.51177 -2.21206,0 -3.079756,-0.0949 -3.300571,-0.36096 z M -109.1551,71.140138 c -1.03474,-1.15615 -1.68452,-2.08962 -1.54513,-2.21974 0.7219,-0.67391 8.17024,-5.8387 8.41597,-5.83577 0.40037,0.005 3.995396,3.08705 3.995396,3.42553 0,0.41622 -8.066246,6.62516 -8.606966,6.62516 -0.26047,0 -1.27714,-0.89783 -2.25927,-1.99518 z m -5.13251,-5.26842 c -1.48244,-1.49905 -1.65932,-1.77866 -1.32291,-2.09124 0.48226,-0.44811 24.159556,-15.733344 24.643396,-15.908928 0.37882,-0.137469 3.65847,1.848334 3.65847,2.215175 0,0.262223 -24.272676,17.260193 -24.863536,17.411753 -0.23462,0.0602 -1.12204,-0.62225 -2.11542,-1.62676 z m 15.791686,-2.41373 c -0.97752,-0.81138 -1.772016,-1.61506 -1.765556,-1.78594 0.006,-0.17087 0.869676,-0.91362 1.918226,-1.65054 1.04856,-0.73692 5.74979,-4.10043 10.44717,-7.47448 4.69738,-3.374042 8.73407,-6.134624 8.97041,-6.134624 0.63219,0 3.83253,1.850348 3.73038,2.156804 -0.14839,0.44515 -20.68696,16.35703 -21.11781,16.36063 -0.22302,0.002 -1.20529,-0.66046 -2.18282,-1.47185 z m -20.559606,-2.38265 c -1.16667,-1.23358 -1.33631,-1.53156 -1.03056,-1.81025 0.26442,-0.24102 14.93094,-8.9035 16.70498,-9.866459 0.29295,-0.159015 3.402316,2.083569 3.30281,2.382099 -0.12863,0.38591 -16.66927,10.77042 -17.15603,10.77087 -0.23356,2.1e-4 -1.05309,-0.6641 -1.8212,-1.47626 z m 35.462046,0.0987 c -1.07349,-0.77011 -1.99321,-1.52478 -2.04382,-1.67704 -0.0722,-0.21722 9.65735,-8.30344 11.86437,-9.860476 0.42906,-0.302698 0.76662,-0.201878 2.60671,0.778566 1.1626,0.61946 2.112128,1.25218 2.110065,1.40606 -0.0053,0.39367 -11.585555,10.58162 -12.134815,10.67581 -0.24789,0.0425 -1.32902,-0.5528 -2.40251,-1.32292 z m -39.407826,-4.2842 -1.41104,-1.42879 0.62633,-0.40588 c 0.34448,-0.22324 7.33677,-4.03737 15.53841,-8.475859 l 14.912086,-8.069972 1.42593,0.699344 c 0.78427,0.38464 1.42594,0.82959 1.42594,0.988779 0,0.217853 -30.659476,18.121168 -31.032546,18.121168 -0.0407,0 -0.70904,-0.64296 -1.48511,-1.42879 z m 22.92651,-7.203557 c -0.69122,-0.518846 -1.25604,-1.080778 -1.25516,-1.248736 7.9e-4,-0.167959 2.795806,-1.95109 6.210946,-3.962515 l 6.20936,-3.657135 1.59425,0.849728 c 0.87684,0.46735 1.59425,0.939985 1.59425,1.050299 0,0.313658 -12.17573,7.928766 -12.66282,7.919746 -0.23873,-0.004 -0.9996,-0.43254 -1.690826,-0.951387 z m 12.435416,-1.582474 c -0.83674,-0.517127 -1.51902,-1.079486 -1.51617,-1.249686 0.005,-0.288357 4.23388,-3.121404 4.92767,-3.301058 0.31903,-0.08261 3.16523,1.418646 3.39527,1.790869 0.0693,0.112184 -0.0795,0.386977 -0.33072,0.610652 -0.85926,0.765019 -4.38703,3.103634 -4.67108,3.096539 -0.15599,-0.0039 -0.96822,-0.430188 -1.80497,-0.947316 z"
       id="path2793"
       inkscape:connector-curvature="0" />
  </g>
</svg>
